                  <svg
                    width="30"
                    height="29"
                    viewBox="0 0 30 29"
                    fill="pink"
                    xmlns="http://www.w3.org/2000/svg"
                  >
                      <path
                        d="M0 10.1661C0 16.6785 5.39276 23.0839 13.9124 28.5873C14.2296 28.7861 14.6828 29.0001 15 29.0001C15.3172 29.0001 15.7704 28.7861 16.1028 28.5873C24.6073 23.0839 30 16.6785 30 10.1661C30 4.75444 26.3294 0.932617 21.435 0.932617C18.6405 0.932617 16.3746 2.2779 15 4.34169C13.6556 2.29318 11.3595 0.932617 8.56497 0.932617C3.6707 0.932617 0 4.75444 0 10.1661ZM2.43203 10.1661C2.43203 6.09971 5.03021 3.39387 8.53476 3.39387C11.3746 3.39387 13.0061 5.18249 13.9728 6.71121C14.3807 7.3227 14.6375 7.49087 15 7.49087C15.3626 7.49087 15.5891 7.30742 16.0272 6.71121C17.0696 5.21306 18.6405 3.39387 21.4654 3.39387C24.9699 3.39387 27.5681 6.09971 27.5681 10.1661C27.5681 15.8531 21.6315 21.9833 15.3172 26.2331C15.1662 26.3401 15.0604 26.4165 15 26.4165C14.9396 26.4165 14.8339 26.3401 14.6979 26.2331C8.3686 21.9833 2.43203 15.8531 2.43203 10.1661Z"
                      />
                    
                  </svg>